<mxfile host="app.diagrams.net" modified="2021-01-13T16:06:18.477Z" agent="5.0 (Macintosh; Intel Mac OS X 10_14_6) AppleWebKit/537.36 (KHTML, like Gecko) Chrome/87.0.4280.88 Safari/537.36" etag="CAhC_iKQhTKwd6um6NOG" version="14.1.9" type="github">
  <diagram id="k_UBauENXQtYFpCN6dBz" name="第 1 页">
    <mxGraphModel dx="497" dy="771" grid="1" gridSize="10" guides="1" tooltips="1" connect="1" arrows="1" fold="1" page="1" pageScale="1" pageWidth="827" pageHeight="1169" math="0" shadow="0">
      <root>
        <mxCell id="0" />
        <mxCell id="1" parent="0" />
        <mxCell id="IA-yXFhUtC8VcQhEP3Hl-1" value="浏览器" style="rounded=0;whiteSpace=wrap;html=1;" vertex="1" parent="1">
          <mxGeometry x="20" y="80" width="100" height="40" as="geometry" />
        </mxCell>
        <mxCell id="IA-yXFhUtC8VcQhEP3Hl-3" value="DNS" style="rounded=0;whiteSpace=wrap;html=1;" vertex="1" parent="1">
          <mxGeometry x="517" y="80" width="100" height="40" as="geometry" />
        </mxCell>
        <mxCell id="IA-yXFhUtC8VcQhEP3Hl-4" value="服务器" style="rounded=0;whiteSpace=wrap;html=1;" vertex="1" parent="1">
          <mxGeometry x="327" y="80" width="100" height="40" as="geometry" />
        </mxCell>
        <mxCell id="IA-yXFhUtC8VcQhEP3Hl-5" value="" style="endArrow=none;dashed=1;html=1;entryX=0.5;entryY=1;entryDx=0;entryDy=0;" edge="1" parent="1" target="IA-yXFhUtC8VcQhEP3Hl-1">
          <mxGeometry width="50" height="50" relative="1" as="geometry">
            <mxPoint x="70" y="600" as="sourcePoint" />
            <mxPoint x="280" y="370" as="targetPoint" />
          </mxGeometry>
        </mxCell>
        <mxCell id="IA-yXFhUtC8VcQhEP3Hl-9" value="" style="endArrow=none;dashed=1;html=1;entryX=0.5;entryY=1;entryDx=0;entryDy=0;" edge="1" parent="1" target="IA-yXFhUtC8VcQhEP3Hl-4">
          <mxGeometry width="50" height="50" relative="1" as="geometry">
            <mxPoint x="377" y="600" as="sourcePoint" />
            <mxPoint x="417" y="370" as="targetPoint" />
          </mxGeometry>
        </mxCell>
        <mxCell id="IA-yXFhUtC8VcQhEP3Hl-10" value="" style="endArrow=none;dashed=1;html=1;entryX=0.5;entryY=1;entryDx=0;entryDy=0;" edge="1" parent="1" source="IA-yXFhUtC8VcQhEP3Hl-24" target="IA-yXFhUtC8VcQhEP3Hl-3">
          <mxGeometry width="50" height="50" relative="1" as="geometry">
            <mxPoint x="567" y="600" as="sourcePoint" />
            <mxPoint x="417" y="370" as="targetPoint" />
          </mxGeometry>
        </mxCell>
        <mxCell id="IA-yXFhUtC8VcQhEP3Hl-11" value="" style="endArrow=classic;html=1;" edge="1" parent="1">
          <mxGeometry relative="1" as="geometry">
            <mxPoint x="70" y="160" as="sourcePoint" />
            <mxPoint x="70" y="210" as="targetPoint" />
            <Array as="points">
              <mxPoint x="120" y="160" />
              <mxPoint x="120" y="210" />
            </Array>
          </mxGeometry>
        </mxCell>
        <mxCell id="IA-yXFhUtC8VcQhEP3Hl-12" value="从 URL 中解析域名" style="edgeLabel;resizable=0;html=1;align=center;verticalAlign=middle;" connectable="0" vertex="1" parent="IA-yXFhUtC8VcQhEP3Hl-11">
          <mxGeometry relative="1" as="geometry" />
        </mxCell>
        <mxCell id="IA-yXFhUtC8VcQhEP3Hl-13" value="" style="endArrow=classic;html=1;" edge="1" parent="1">
          <mxGeometry relative="1" as="geometry">
            <mxPoint x="377" y="160" as="sourcePoint" />
            <mxPoint x="377" y="210" as="targetPoint" />
            <Array as="points">
              <mxPoint x="417" y="160" />
              <mxPoint x="417" y="210" />
            </Array>
          </mxGeometry>
        </mxCell>
        <mxCell id="IA-yXFhUtC8VcQhEP3Hl-14" value="监听 80 或 443 等 Web端口" style="edgeLabel;resizable=0;html=1;align=center;verticalAlign=middle;" connectable="0" vertex="1" parent="IA-yXFhUtC8VcQhEP3Hl-13">
          <mxGeometry relative="1" as="geometry" />
        </mxCell>
        <mxCell id="IA-yXFhUtC8VcQhEP3Hl-15" value="根据域名查询 DNS" style="endArrow=classic;html=1;entryX=0.5;entryY=0;entryDx=0;entryDy=0;" edge="1" parent="1" target="IA-yXFhUtC8VcQhEP3Hl-24">
          <mxGeometry relative="1" as="geometry">
            <mxPoint x="70" y="260" as="sourcePoint" />
            <mxPoint x="430" y="260" as="targetPoint" />
          </mxGeometry>
        </mxCell>
        <mxCell id="IA-yXFhUtC8VcQhEP3Hl-21" value="获取到域名对应的 IP 地址" style="endArrow=classic;html=1;dashed=1;exitX=0.5;exitY=1;exitDx=0;exitDy=0;" edge="1" parent="1" source="IA-yXFhUtC8VcQhEP3Hl-24">
          <mxGeometry relative="1" as="geometry">
            <mxPoint x="430" y="280" as="sourcePoint" />
            <mxPoint x="70" y="280" as="targetPoint" />
          </mxGeometry>
        </mxCell>
        <mxCell id="IA-yXFhUtC8VcQhEP3Hl-24" value="" style="rounded=0;whiteSpace=wrap;html=1;fillColor=#dae8fc;strokeColor=#6c8ebf;" vertex="1" parent="1">
          <mxGeometry x="557" y="260" width="20" height="20" as="geometry" />
        </mxCell>
        <mxCell id="IA-yXFhUtC8VcQhEP3Hl-25" value="" style="endArrow=none;dashed=1;html=1;entryX=0.5;entryY=1;entryDx=0;entryDy=0;" edge="1" parent="1" target="IA-yXFhUtC8VcQhEP3Hl-24">
          <mxGeometry width="50" height="50" relative="1" as="geometry">
            <mxPoint x="567" y="600" as="sourcePoint" />
            <mxPoint x="567" y="120" as="targetPoint" />
          </mxGeometry>
        </mxCell>
        <mxCell id="IA-yXFhUtC8VcQhEP3Hl-26" value="" style="endArrow=classic;html=1;dashed=1;" edge="1" parent="1">
          <mxGeometry relative="1" as="geometry">
            <mxPoint x="70" y="320" as="sourcePoint" />
            <mxPoint x="380" y="320" as="targetPoint" />
          </mxGeometry>
        </mxCell>
        <mxCell id="IA-yXFhUtC8VcQhEP3Hl-27" value="三次握手建立 TCP 连接&lt;br&gt;( HTTPS则再完成 TLS/SSL 握手 )" style="edgeLabel;resizable=0;html=1;align=center;verticalAlign=middle;" connectable="0" vertex="1" parent="IA-yXFhUtC8VcQhEP3Hl-26">
          <mxGeometry relative="1" as="geometry" />
        </mxCell>
      </root>
    </mxGraphModel>
  </diagram>
</mxfile>
